# Blender 4.4.1
# www.blender.org
mtllib Chicken.mtl
o Cube
v -0.580845 0.082374 1.051281
v -0.592571 0.443823 1.051281
v -0.925590 0.082374 -0.589892
v -0.937316 0.698471 -0.692114
v 0.590062 0.082374 1.051281
v 0.616216 0.488742 1.051281
v 0.934807 0.082374 -0.638310
v 0.910469 0.953114 -0.970532
v -0.904212 0.056897 0.242884
v -0.674564 0.244795 1.212782
v -0.935483 0.612869 0.225847
v -1.130135 0.304940 -0.809063
v 0.000006 0.055329 -0.805720
v -0.009149 0.774386 -0.735669
v 1.142158 0.374567 -1.006326
v 0.928791 0.056896 0.234814
v 0.983574 0.794793 0.149629
v 0.701548 0.252281 1.212782
v 0.000006 0.055329 1.218855
v 0.001683 0.442820 0.981403
v -1.250308 0.275082 0.242884
v -0.003756 0.352708 -1.271041
v 1.354502 0.320563 0.193568
v 0.000006 0.237557 1.537836
v 0.000006 0.011449 0.243321
v 0.004198 0.659027 0.204507
v -0.974434 0.064135 -0.244930
v -0.739229 0.064135 0.726861
v -0.641183 0.144005 1.162150
v -0.647250 0.356219 1.162150
v -0.762275 0.517738 0.724731
v -0.997480 0.684205 -0.299945
v -1.074435 0.530204 -0.778915
v -1.068368 0.151523 -0.726029
v 0.570428 0.064135 -0.749958
v -0.568977 0.064135 -0.724908
v -0.576613 0.809744 -0.934321
v 0.543429 0.994807 -1.136840
v 1.059334 0.723970 -1.060057
v 1.084763 0.160226 -0.829703
v 0.757194 0.064135 0.725852
v 0.992399 0.064135 -0.270988
v 1.002969 0.942075 -0.511991
v 0.806724 0.613784 0.715204
v 0.672980 0.380394 1.162150
v 0.659449 0.144940 1.162150
v -0.333772 0.064135 1.162150
v 0.335223 0.064135 1.162150
v 0.349055 0.477666 1.162150
v -0.339539 0.454426 1.162150
v -1.005348 0.258666 0.771226
v -1.180511 0.453162 0.240755
v -1.318552 0.288946 -0.295714
v -1.159012 0.139710 0.242884
v -0.649003 0.327782 -1.249676
v -0.010507 0.678092 -1.106479
v 0.641155 0.371439 -1.385295
v -0.000464 0.148364 -1.236493
v 1.385377 0.355133 -0.437497
v 1.268075 0.583920 0.168573
v 1.082458 0.282132 0.765062
v 1.230412 0.145395 0.217554
v 0.338704 0.239848 1.493388
v 0.000159 0.325684 1.334226
v -0.335331 0.238912 1.493388
v 0.000006 0.133970 1.501092
v 0.000006 0.018925 -0.297280
v 0.497692 0.020703 0.241875
v 0.000006 0.018925 0.774733
v -0.494620 0.020703 0.242884
v -0.002839 0.770918 -0.300285
v -0.515384 0.703201 0.191773
v 0.004608 0.542967 0.641008
v 0.536090 0.828274 0.143913
v -0.935744 0.141249 0.751368
v -0.951339 0.399882 0.751102
v -1.246678 0.491816 -0.283528
v -1.231084 0.145033 -0.271904
v -0.621185 0.149888 -1.068575
v -0.623736 0.600249 -1.210373
v 0.596022 0.725916 -1.406976
v 0.622104 0.155345 -1.138821
v 1.281469 0.153307 -0.345316
v 1.287225 0.680384 -0.489155
v 1.020910 0.467891 0.742079
v 0.987414 0.144182 0.748202
v 0.328108 0.138896 1.410515
v 0.331051 0.349897 1.410515
v -0.327053 0.344789 1.410515
v -0.325787 0.138779 1.410515
v -0.543562 0.028816 -0.271764
v 0.545844 0.028816 -0.277270
v 0.409545 0.028816 0.751242
v -0.407262 0.028816 0.751368
v 0.551120 0.997854 -0.557671
v -0.559636 0.817559 -0.419951
v -0.422051 0.573207 0.744979
v 0.443846 0.638284 0.738996
v 0.154268 0.046706 -0.820516
v 0.144489 0.909737 -0.986892
v 0.090552 0.046706 1.237965
v 0.094751 0.465632 1.114152
v 0.172415 0.362934 -1.396352
v 0.091495 0.233878 1.578010
v 0.134564 0.001048 0.246654
v 0.146095 0.762247 0.175038
v 0.158370 0.718505 -1.321916
v 0.168140 0.143053 -1.249073
v 0.088624 0.126921 1.515387
v 0.089463 0.337546 1.428379
v 0.147609 0.009201 -0.307498
v 0.110685 0.009201 0.790886
v 0.148272 0.909527 -0.456123
v 0.121217 0.602089 0.714736
v -0.154393 0.046706 -0.807378
v -0.158927 0.812679 -0.880680
v -0.090677 0.046706 1.237965
v -0.091787 0.453444 1.114152
v -0.177085 0.340038 -1.325226
v -0.091099 0.233387 1.578010
v -0.134250 0.001048 0.247183
v -0.138745 0.696651 0.200139
v -0.168662 0.140191 -1.212232
v -0.172058 0.652599 -1.218806
v -0.088815 0.334867 1.428379
v -0.088513 0.126859 1.515387
v -0.147508 0.009201 -0.304611
v -0.110585 0.009201 0.790952
v -0.152628 0.814970 -0.383895
v -0.113351 0.567959 0.717874
vn -0.2082 -0.9584 0.1954
vn -0.2878 0.8807 0.3761
vn -0.1764 -0.9752 -0.1335
vn -0.4538 0.8765 -0.1610
vn 0.1959 -0.9612 0.1943
vn 0.2533 0.8475 0.4665
vn 0.1632 -0.9779 -0.1306
vn 0.3068 0.9373 -0.1651
vn -0.1911 -0.9805 0.0459
vn -0.7232 -0.0645 0.6876
vn -0.3533 0.9104 0.2154
vn -0.8323 -0.1907 -0.5205
vn -0.0070 -0.9905 -0.1372
vn -0.1313 0.9820 -0.1360
vn 0.7795 -0.2735 -0.5636
vn 0.1824 -0.9823 0.0421
vn 0.3202 0.9120 0.2562
vn 0.6876 -0.1094 0.7178
vn 0.0001 -0.9870 0.1610
vn -0.0366 0.9521 0.3035
vn -0.9566 -0.1246 0.2633
vn -0.1652 -0.0139 -0.9862
vn 0.9636 -0.1395 0.2281
vn -0.0038 0.5886 0.8084
vn -0.0000 -1.0000 -0.0014
vn -0.1038 0.9665 0.2348
vn -0.1919 -0.9808 -0.0338
vn -0.1986 -0.9735 0.1133
vn -0.4398 -0.8003 0.4075
vn -0.4991 0.6833 0.5329
vn -0.3074 0.9001 0.3089
vn -0.4033 0.9131 0.0595
vn -0.7372 0.5600 -0.3782
vn -0.4268 -0.8586 -0.2839
vn 0.0829 -0.9875 -0.1343
vn -0.0917 -0.9860 -0.1391
vn -0.1503 0.9776 -0.1475
vn -0.0152 0.9886 -0.1495
vn 0.7337 0.4820 -0.4789
vn 0.3953 -0.8718 -0.2894
vn 0.1867 -0.9760 0.1121
vn 0.1823 -0.9825 -0.0371
vn 0.3037 0.9508 0.0609
vn 0.2705 0.8801 0.3902
vn 0.4818 0.6284 0.6107
vn 0.4135 -0.8140 0.4079
vn -0.1384 -0.9744 0.1771
vn 0.1354 -0.9749 0.1770
vn 0.0211 0.9142 0.4047
vn -0.0703 0.9377 0.3404
vn -0.8591 -0.1048 0.5010
vn -0.7203 0.6468 0.2505
vn -0.9871 -0.1280 -0.0959
vn -0.5144 -0.8475 0.1309
vn -0.4424 -0.2559 -0.8595
vn -0.1882 0.7999 -0.5699
vn 0.3184 -0.3964 -0.8611
vn -0.0480 -0.8948 -0.4439
vn 0.9786 -0.1383 -0.1522
vn 0.7647 0.5917 0.2550
vn 0.8395 -0.1511 0.5219
vn 0.5060 -0.8552 0.1127
vn 0.4504 0.0569 0.8910
vn -0.0113 0.9141 0.4053
vn -0.4682 0.0867 0.8794
vn 0.0005 -0.8578 0.5140
vn -0.0010 -0.9991 -0.0434
vn 0.0720 -0.9973 0.0110
vn -0.0000 -0.9990 0.0446
vn -0.0742 -0.9972 0.0113
vn -0.1233 0.9832 0.1348
vn -0.0957 0.9736 0.2072
vn -0.0710 0.9622 0.2631
vn -0.0301 0.9661 0.2565
vn -0.5022 -0.8202 0.2741
vn -0.6369 0.6423 0.4265
vn -0.7842 0.6200 -0.0242
vn -0.5395 -0.8399 -0.0582
vn -0.2059 -0.8956 -0.3943
vn -0.3730 0.6164 -0.6934
vn 0.1830 0.4941 -0.8499
vn 0.1715 -0.9089 -0.3801
vn 0.5276 -0.8455 -0.0820
vn 0.8145 0.5776 -0.0552
vn 0.6520 0.5743 0.4952
vn 0.4719 -0.8394 0.2698
vn 0.2819 -0.8422 0.4596
vn 0.1676 0.7979 0.5791
vn -0.1847 0.8276 0.5301
vn -0.2896 -0.8396 0.4595
vn -0.0689 -0.9969 -0.0389
vn 0.0659 -0.9971 -0.0379
vn 0.0864 -0.9943 0.0626
vn -0.0887 -0.9941 0.0627
vn -0.0324 0.9966 0.0755
vn -0.1116 0.9916 0.0654
vn -0.0661 0.9633 0.2602
vn -0.0255 0.9462 0.3225
vn -0.0001 -0.9912 -0.1326
vn -0.3788 0.9114 -0.1608
vn -0.0033 -0.9871 0.1601
vn -0.3140 0.8926 0.3237
vn -0.2977 -0.2296 -0.9266
vn -0.1006 0.2965 0.9497
vn -0.0092 -1.0000 0.0020
vn -0.3226 0.9165 0.2368
vn -0.5371 0.5644 -0.6268
vn -0.0186 -0.9214 -0.3881
vn 0.0147 -0.8941 0.4476
vn -0.2432 0.8560 0.4562
vn -0.0072 -0.9991 -0.0423
vn -0.0094 -0.9986 0.0513
vn -0.3240 0.9405 0.1028
vn -0.3229 0.9060 0.2735
vn -0.0080 -0.9909 -0.1345
vn 0.1124 0.9842 -0.1370
vn 0.0030 -0.9871 0.1601
vn 0.2290 0.9257 0.3009
vn 0.0395 -0.1353 -0.9900
vn 0.0929 0.3037 0.9482
vn 0.0090 -1.0000 0.0020
vn 0.1156 0.9705 0.2114
vn -0.0326 -0.9179 -0.3954
vn 0.1596 0.7285 -0.6662
vn 0.2099 0.8722 0.4418
vn -0.0151 -0.8943 0.4472
vn 0.0058 -0.9991 -0.0429
vn 0.0092 -0.9986 0.0513
vn 0.1078 0.9917 0.0694
vn 0.1729 0.9533 0.2476
vt 0.375000 0.000000
vt 0.437500 0.000000
vt 0.437500 0.062500
vt 0.375000 0.062500
vt 0.500000 0.000000
vt 0.500000 0.062500
vt 0.500000 0.125000
vt 0.437500 0.125000
vt 0.375000 0.125000
vt 0.562500 0.000000
vt 0.562500 0.062500
vt 0.625000 0.000000
vt 0.625000 0.062500
vt 0.625000 0.125000
vt 0.562500 0.125000
vt 0.562500 0.187500
vt 0.500000 0.187500
vt 0.625000 0.187500
vt 0.625000 0.250000
vt 0.562500 0.250000
vt 0.500000 0.250000
vt 0.437500 0.187500
vt 0.375000 0.187500
vt 0.437500 0.250000
vt 0.375000 0.250000
vt 0.437500 0.312500
vt 0.375000 0.312500
vt 0.500000 0.312500
vt 0.437500 0.343750
vt 0.500000 0.343750
vt 0.500000 0.375000
vt 0.437500 0.375000
vt 0.375000 0.343750
vt 0.375000 0.375000
vt 0.562500 0.312500
vt 0.625000 0.312500
vt 0.562500 0.343750
vt 0.625000 0.343750
vt 0.625000 0.375000
vt 0.562500 0.375000
vt 0.500000 0.406250
vt 0.562500 0.406250
vt 0.562500 0.437500
vt 0.500000 0.437500
vt 0.625000 0.406250
vt 0.625000 0.437500
vt 0.625000 0.500000
vt 0.562500 0.500000
vt 0.500000 0.500000
vt 0.375000 0.406250
vt 0.437500 0.406250
vt 0.437500 0.437500
vt 0.375000 0.437500
vt 0.437500 0.500000
vt 0.375000 0.500000
vt 0.437500 0.562500
vt 0.375000 0.562500
vt 0.500000 0.562500
vt 0.500000 0.625000
vt 0.437500 0.625000
vt 0.375000 0.625000
vt 0.562500 0.562500
vt 0.625000 0.562500
vt 0.625000 0.625000
vt 0.562500 0.625000
vt 0.562500 0.687500
vt 0.500000 0.687500
vt 0.625000 0.687500
vt 0.625000 0.750000
vt 0.562500 0.750000
vt 0.500000 0.750000
vt 0.437500 0.687500
vt 0.375000 0.687500
vt 0.437500 0.750000
vt 0.375000 0.750000
vt 0.437500 0.812500
vt 0.375000 0.812500
vt 0.500000 0.812500
vt 0.437500 0.843750
vt 0.500000 0.843750
vt 0.500000 0.875000
vt 0.437500 0.875000
vt 0.375000 0.843750
vt 0.375000 0.875000
vt 0.562500 0.812500
vt 0.625000 0.812500
vt 0.562500 0.843750
vt 0.625000 0.843750
vt 0.625000 0.875000
vt 0.562500 0.875000
vt 0.500000 0.906250
vt 0.562500 0.906250
vt 0.562500 0.937500
vt 0.500000 0.937500
vt 0.625000 0.906250
vt 0.625000 0.937500
vt 0.625000 1.000000
vt 0.562500 1.000000
vt 0.500000 1.000000
vt 0.375000 0.906250
vt 0.437500 0.906250
vt 0.437500 0.937500
vt 0.375000 0.937500
vt 0.437500 1.000000
vt 0.375000 1.000000
vt 0.125000 0.500000
vt 0.187500 0.500000
vt 0.187500 0.562500
vt 0.125000 0.562500
vt 0.218750 0.500000
vt 0.250000 0.500000
vt 0.250000 0.562500
vt 0.218750 0.562500
vt 0.250000 0.625000
vt 0.218750 0.625000
vt 0.187500 0.625000
vt 0.125000 0.625000
vt 0.281250 0.500000
vt 0.312500 0.500000
vt 0.312500 0.562500
vt 0.281250 0.562500
vt 0.312500 0.625000
vt 0.281250 0.625000
vt 0.312500 0.687500
vt 0.281250 0.687500
vt 0.312500 0.750000
vt 0.281250 0.750000
vt 0.187500 0.687500
vt 0.125000 0.687500
vt 0.250000 0.687500
vt 0.218750 0.687500
vt 0.250000 0.750000
vt 0.218750 0.750000
vt 0.187500 0.750000
vt 0.125000 0.750000
vt 0.687500 0.500000
vt 0.687500 0.562500
vt 0.718750 0.500000
vt 0.750000 0.500000
vt 0.750000 0.562500
vt 0.718750 0.562500
vt 0.750000 0.625000
vt 0.718750 0.625000
vt 0.687500 0.625000
vt 0.781250 0.500000
vt 0.812500 0.500000
vt 0.812500 0.562500
vt 0.781250 0.562500
vt 0.875000 0.500000
vt 0.875000 0.562500
vt 0.875000 0.625000
vt 0.812500 0.625000
vt 0.781250 0.625000
vt 0.812500 0.687500
vt 0.781250 0.687500
vt 0.875000 0.687500
vt 0.875000 0.750000
vt 0.812500 0.750000
vt 0.781250 0.750000
vt 0.687500 0.687500
vt 0.750000 0.687500
vt 0.718750 0.687500
vt 0.750000 0.750000
vt 0.718750 0.750000
vt 0.687500 0.750000
s 1
usemtl Material
f 1/1/1 29/2/29 75/3/75 28/4/28
f 29/2/29 10/5/10 51/6/51 75/3/75
f 75/3/75 51/6/51 21/7/21 54/8/54
f 28/4/28 75/3/75 54/8/54 9/9/9
f 10/5/10 30/10/30 76/11/76 51/6/51
f 30/10/30 2/12/2 31/13/31 76/11/76
f 76/11/76 31/13/31 11/14/11 52/15/52
f 51/6/51 76/11/76 52/15/52 21/7/21
f 21/7/21 52/15/52 77/16/77 53/17/53
f 52/15/52 11/14/11 32/18/32 77/16/77
f 77/16/77 32/18/32 4/19/4 33/20/33
f 53/17/53 77/16/77 33/20/33 12/21/12
f 9/9/9 54/8/54 78/22/78 27/23/27
f 54/8/54 21/7/21 53/17/53 78/22/78
f 78/22/78 53/17/53 12/21/12 34/24/34
f 27/23/27 78/22/78 34/24/34 3/25/3
f 3/25/3 34/24/34 79/26/79 36/27/36
f 34/24/34 12/21/12 55/28/55 79/26/79
f 123/29/123 119/30/119 22/31/22 58/32/58
f 115/33/115 123/29/123 58/32/58 13/34/13
f 12/21/12 33/20/33 80/35/80 55/28/55
f 33/20/33 4/19/4 37/36/37 80/35/80
f 124/37/124 116/38/116 14/39/14 56/40/56
f 119/30/119 124/37/124 56/40/56 22/31/22
f 103/41/103 107/42/107 81/43/81 57/44/57
f 107/42/107 100/45/100 38/46/38 81/43/81
f 81/43/81 38/46/38 8/47/8 39/48/39
f 57/44/57 81/43/81 39/48/39 15/49/15
f 99/50/99 108/51/108 82/52/82 35/53/35
f 108/51/108 103/41/103 57/44/57 82/52/82
f 82/52/82 57/44/57 15/49/15 40/54/40
f 35/53/35 82/52/82 40/54/40 7/55/7
f 7/55/7 40/54/40 83/56/83 42/57/42
f 40/54/40 15/49/15 59/58/59 83/56/83
f 83/56/83 59/58/59 23/59/23 62/60/62
f 42/57/42 83/56/83 62/60/62 16/61/16
f 15/49/15 39/48/39 84/62/84 59/58/59
f 39/48/39 8/47/8 43/63/43 84/62/84
f 84/62/84 43/63/43 17/64/17 60/65/60
f 59/58/59 84/62/84 60/65/60 23/59/23
f 23/59/23 60/65/60 85/66/85 61/67/61
f 60/65/60 17/64/17 44/68/44 85/66/85
f 85/66/85 44/68/44 6/69/6 45/70/45
f 61/67/61 85/66/85 45/70/45 18/71/18
f 16/61/16 62/60/62 86/72/86 41/73/41
f 62/60/62 23/59/23 61/67/61 86/72/86
f 86/72/86 61/67/61 18/71/18 46/74/46
f 41/73/41 86/72/86 46/74/46 5/75/5
f 5/75/5 46/74/46 87/76/87 48/77/48
f 46/74/46 18/71/18 63/78/63 87/76/87
f 109/79/109 104/80/104 24/81/24 66/82/66
f 101/83/101 109/79/109 66/82/66 19/84/19
f 18/71/18 45/70/45 88/85/88 63/78/63
f 45/70/45 6/69/6 49/86/49 88/85/88
f 110/87/110 102/88/102 20/89/20 64/90/64
f 104/80/104 110/87/110 64/90/64 24/81/24
f 120/91/120 125/92/125 89/93/89 65/94/65
f 125/92/125 118/95/118 50/96/50 89/93/89
f 89/93/89 50/96/50 2/97/2 30/98/30
f 65/94/65 89/93/89 30/98/30 10/99/10
f 117/100/117 126/101/126 90/102/90 47/103/47
f 126/101/126 120/91/120 65/94/65 90/102/90
f 90/102/90 65/94/65 10/99/10 29/104/29
f 47/103/47 90/102/90 29/104/29 1/105/1
f 3/106/3 36/107/36 91/108/91 27/109/27
f 115/110/115 13/111/13 67/112/67 127/113/127
f 127/113/127 67/112/67 25/114/25 121/115/121
f 27/109/27 91/108/91 70/116/70 9/117/9
f 99/118/99 35/119/35 92/120/92 111/121/111
f 35/119/35 7/55/7 42/57/42 92/120/92
f 92/120/92 42/57/42 16/61/16 68/122/68
f 111/121/111 92/120/92 68/122/68 105/123/105
f 105/123/105 68/122/68 93/124/93 112/125/112
f 68/122/68 16/61/16 41/73/41 93/124/93
f 93/124/93 41/73/41 5/75/5 48/126/48
f 112/125/112 93/124/93 48/126/48 101/127/101
f 9/117/9 70/116/70 94/128/94 28/129/28
f 121/115/121 25/114/25 69/130/69 128/131/128
f 128/131/128 69/130/69 19/132/19 117/133/117
f 28/129/28 94/128/94 47/134/47 1/135/1
f 8/47/8 38/136/38 95/137/95 43/63/43
f 100/138/100 14/139/14 71/140/71 113/141/113
f 113/141/113 71/140/71 26/142/26 106/143/106
f 43/63/43 95/137/95 74/144/74 17/64/17
f 116/145/116 37/146/37 96/147/96 129/148/129
f 37/146/37 4/149/4 32/150/32 96/147/96
f 96/147/96 32/150/32 11/151/11 72/152/72
f 129/148/129 96/147/96 72/152/72 122/153/122
f 122/153/122 72/152/72 97/154/97 130/155/130
f 72/152/72 11/151/11 31/156/31 97/154/97
f 97/154/97 31/156/31 2/157/2 50/158/50
f 130/155/130 97/154/97 50/158/50 118/159/118
f 17/64/17 74/144/74 98/160/98 44/68/44
f 106/143/106 26/142/26 73/161/73 114/162/114
f 114/162/114 73/161/73 20/163/20 102/164/102
f 44/68/44 98/160/98 49/165/49 6/69/6
f 98/160/98 114/162/114 102/164/102 49/165/49
f 74/144/74 106/143/106 114/162/114 98/160/98
f 95/137/95 113/141/113 106/143/106 74/144/74
f 38/136/38 100/138/100 113/141/113 95/137/95
f 69/130/69 112/125/112 101/127/101 19/132/19
f 25/114/25 105/123/105 112/125/112 69/130/69
f 67/112/67 111/121/111 105/123/105 25/114/25
f 13/111/13 99/118/99 111/121/111 67/112/67
f 63/78/63 88/85/88 110/87/110 104/80/104
f 88/85/88 49/86/49 102/88/102 110/87/110
f 48/77/48 87/76/87 109/79/109 101/83/101
f 87/76/87 63/78/63 104/80/104 109/79/109
f 58/32/58 22/31/22 103/41/103 108/51/108
f 13/34/13 58/32/58 108/51/108 99/50/99
f 56/40/56 14/39/14 100/45/100 107/42/107
f 22/31/22 56/40/56 107/42/107 103/41/103
f 73/161/73 130/155/130 118/159/118 20/163/20
f 26/142/26 122/153/122 130/155/130 73/161/73
f 71/140/71 129/148/129 122/153/122 26/142/26
f 14/139/14 116/145/116 129/148/129 71/140/71
f 94/128/94 128/131/128 117/133/117 47/134/47
f 70/116/70 121/115/121 128/131/128 94/128/94
f 91/108/91 127/113/127 121/115/121 70/116/70
f 36/107/36 115/110/115 127/113/127 91/108/91
f 66/82/66 24/81/24 120/91/120 126/101/126
f 19/84/19 66/82/66 126/101/126 117/100/117
f 64/90/64 20/89/20 118/95/118 125/92/125
f 24/81/24 64/90/64 125/92/125 120/91/120
f 55/28/55 80/35/80 124/37/124 119/30/119
f 80/35/80 37/36/37 116/38/116 124/37/124
f 36/27/36 79/26/79 123/29/123 115/33/115
f 79/26/79 55/28/55 119/30/119 123/29/123
