# Blender 4.4.1
# www.blender.org
mtllib tomatostem.mtl
o Cylinder
v 0.000000 0.771330 -0.126263
v 0.000000 0.702803 -0.126263
v 0.120084 0.771330 -0.039018
v 0.120084 0.702803 -0.039018
v 0.074216 0.771330 0.102149
v 0.074216 0.702803 0.102149
v -0.074216 0.771330 0.102149
v -0.074216 0.702803 0.102149
v -0.120084 0.771330 -0.039018
v -0.120084 0.702803 -0.039018
v 0.000000 0.833312 -0.042046
v 0.039988 0.833312 -0.012993
v 0.024714 0.833312 0.034016
v -0.024714 0.833312 0.034016
v -0.039988 0.833312 -0.012993
v 0.000000 0.812085 -0.126263
v 0.120084 0.812085 -0.039018
v 0.074216 0.812085 0.102149
v -0.074216 0.812085 0.102149
v -0.120084 0.812085 -0.039018
v 0.000000 0.794819 -0.078349
v 0.074515 0.794819 -0.024211
v 0.046053 0.794819 0.063386
v -0.046053 0.794819 0.063386
v -0.074515 0.794819 -0.024211
v 0.226722 0.789940 -0.004369
v 0.180854 0.789940 0.136798
v 0.180854 0.830695 0.136798
v 0.226722 0.830695 -0.004369
v -0.185990 0.789940 -0.129729
v -0.065906 0.789940 -0.216975
v -0.065906 0.830695 -0.216975
v -0.185990 0.830695 -0.129729
v 0.065906 0.789940 -0.216975
v 0.185990 0.789940 -0.129729
v 0.185990 0.830695 -0.129729
v 0.065906 0.830695 -0.216975
v 0.074216 0.789940 0.214275
v -0.074216 0.789940 0.214275
v -0.074216 0.830695 0.214275
v 0.074216 0.830695 0.214275
v -0.180854 0.789940 0.136798
v -0.226722 0.789940 -0.004369
v -0.226722 0.830695 -0.004369
v -0.180854 0.830695 0.136798
v 0.325776 0.802356 0.075360
v 0.307854 0.802356 0.130519
v 0.307854 0.818280 0.130519
v 0.325776 0.818280 0.075360
v -0.219263 0.802356 -0.252454
v -0.172342 0.802356 -0.286544
v -0.172342 0.818280 -0.286544
v -0.219263 0.818280 -0.252454
v 0.172342 0.802356 -0.286544
v 0.219263 0.802356 -0.252454
v 0.219263 0.818280 -0.252454
v 0.172342 0.818280 -0.286544
v 0.028999 0.802356 0.333119
v -0.028999 0.802356 0.333119
v -0.028999 0.818280 0.333119
v 0.028999 0.818280 0.333119
v -0.307854 0.802356 0.130519
v -0.325776 0.802356 0.075360
v -0.325776 0.818280 0.075360
v -0.307854 0.818280 0.130519
v 0.335415 0.817635 0.123964
v 0.344221 0.817635 0.096863
v 0.335415 0.825459 0.123964
v 0.344221 0.825459 0.096863
v -0.198492 0.817635 -0.297441
v -0.221546 0.817635 -0.280692
v -0.198492 0.825459 -0.297441
v -0.221546 0.825459 -0.280692
v 0.221546 0.817635 -0.280692
v 0.198492 0.817635 -0.297441
v 0.221546 0.825459 -0.280692
v 0.198492 0.825459 -0.297441
v -0.014248 0.817635 0.357306
v 0.014248 0.817635 0.357306
v -0.014248 0.825459 0.357306
v 0.014248 0.825459 0.357306
v -0.344221 0.817635 0.096863
v -0.335415 0.817635 0.123964
v -0.344221 0.825459 0.096863
v -0.335415 0.825459 0.123964
v 0.100192 1.129222 -0.042046
v 0.119070 1.093971 -0.012993
v 0.111859 1.107436 0.034016
v 0.088524 1.151009 0.034016
v 0.081313 1.164474 -0.012993
v 0.030530 1.063022 -0.042046
v 0.000000 0.973399 -0.042046
v 0.039988 0.973399 -0.012993
v 0.069984 1.039177 -0.012993
v 0.024714 0.973399 0.034016
v 0.054583 1.048627 0.034016
v -0.024714 0.973399 0.034016
v 0.007459 1.076875 0.034016
v -0.039988 0.973399 -0.012993
v -0.006474 1.085282 -0.012993
vn -0.0000 -0.8897 -0.4566
vn -0.0000 -0.9391 -0.3436
vn 0.4343 -0.8897 -0.1411
vn 0.3268 -0.9391 -0.1062
vn 0.2684 -0.8897 0.3694
vn 0.2020 -0.9391 0.2780
vn -0.2684 -0.8897 0.3694
vn -0.2020 -0.9391 0.2780
vn -0.4343 -0.8897 -0.1411
vn -0.3268 -0.9391 -0.1062
vn -0.0000 0.4383 -0.8988
vn 0.8549 0.4383 -0.2778
vn 0.5283 0.4383 0.7272
vn -0.5283 0.4383 0.7272
vn -0.8549 0.4383 -0.2778
vn -0.0000 0.9994 0.0348
vn -0.0331 0.9994 0.0108
vn -0.0205 0.9994 -0.0282
vn 0.0205 0.9994 -0.0282
vn 0.0331 0.9994 0.0108
vn -0.0000 0.9991 0.0432
vn -0.0411 0.9991 0.0134
vn -0.0254 0.9991 -0.0350
vn 0.0254 0.9991 -0.0350
vn 0.0411 0.9991 0.0134
vn 0.2655 -0.9280 -0.2613
vn 0.0613 -0.9280 0.3675
vn -0.0653 0.9732 0.2207
vn 0.0769 0.9732 -0.2169
vn -0.3684 -0.9280 0.0553
vn 0.1664 -0.9280 -0.3333
vn 0.1825 0.9732 -0.1402
vn -0.1897 0.9732 0.1303
vn -0.1664 -0.9280 -0.3333
vn 0.3684 -0.9280 0.0553
vn 0.1897 0.9732 0.1303
vn -0.1825 0.9732 -0.1402
vn 0.3305 -0.9280 0.1718
vn -0.3305 -0.9280 0.1718
vn -0.2301 0.9732 0.0061
vn 0.2301 0.9732 0.0061
vn -0.0613 -0.9280 0.3675
vn -0.2655 -0.9280 -0.2613
vn -0.0769 0.9732 -0.2169
vn 0.0653 0.9732 0.2207
vn 0.3652 -0.9217 -0.1304
vn 0.2188 -0.9217 0.3202
vn 0.0440 0.9169 0.3968
vn 0.2688 0.9169 -0.2951
vn -0.3722 -0.9217 -0.1092
vn 0.0112 -0.9217 -0.3877
vn 0.1976 0.9169 -0.3469
vn -0.3910 0.9169 0.0807
vn -0.0112 -0.9217 -0.3877
vn 0.3722 -0.9217 -0.1092
vn 0.3910 0.9169 0.0807
vn -0.1976 0.9169 -0.3469
vn 0.2369 -0.9217 0.3071
vn -0.2369 -0.9217 0.3071
vn -0.3638 0.9169 0.1645
vn 0.3638 0.9169 0.1645
vn -0.2188 -0.9217 0.3202
vn -0.3652 -0.9217 -0.1304
vn -0.2688 0.9169 -0.2951
vn -0.0440 0.9169 0.3968
vn 0.6378 -0.4540 0.6221
vn 0.8817 -0.4540 -0.1284
vn 0.0619 0.9837 0.1685
vn 0.1492 0.9837 -0.1000
vn -0.1503 -0.4540 -0.8782
vn -0.7888 -0.4540 -0.4143
vn 0.0490 0.9837 -0.1727
vn -0.1794 0.9837 -0.0068
vn 0.7888 -0.4540 -0.4143
vn 0.1503 -0.4540 -0.8782
vn 0.1794 0.9837 -0.0068
vn -0.0490 0.9837 -0.1727
vn -0.3946 -0.4540 0.7988
vn 0.3946 -0.4540 0.7988
vn -0.1412 0.9837 0.1110
vn 0.1412 0.9837 0.1110
vn -0.8817 -0.4540 -0.1284
vn -0.6378 -0.4540 0.6221
vn -0.1492 0.9837 -0.1000
vn -0.0619 0.9837 0.1685
vn 0.4172 0.6050 -0.6782
vn 0.8183 -0.5013 -0.2813
vn 0.7029 0.1305 0.6992
vn 0.0978 0.9233 0.3713
vn 0.0067 0.9988 -0.0488
vn -0.0732 -0.0644 -0.9952
vn -0.0225 -0.0042 -0.9997
vn 0.9302 -0.1912 -0.3132
vn 0.8380 -0.4648 -0.2858
vn 0.5623 -0.1169 0.8186
vn 0.4864 -0.3720 0.7906
vn -0.5928 0.0908 0.8002
vn -0.5575 0.3151 0.7681
vn -0.9418 0.1427 -0.3043
vn -0.7390 0.6240 -0.2541
vt 1.000000 0.500000
vt 1.000000 1.000000
vt 0.800000 1.000000
vt 0.800000 0.500000
vt 0.600000 1.000000
vt 0.600000 0.500000
vt 0.400000 1.000000
vt 0.400000 0.500000
vt 0.478254 0.324164
vt 0.250000 0.490000
vt 0.021746 0.324164
vt 0.108932 0.055836
vt 0.391068 0.055836
vt 0.200000 1.000000
vt 0.200000 0.500000
vt 0.000000 1.000000
vt 0.000000 0.500000
vt 0.891636 0.296020
vt 0.750000 0.398925
vt 0.750000 0.490000
vt 0.978254 0.324164
vt 0.837536 0.129517
vt 0.891068 0.055836
vt 0.662464 0.129517
vt 0.608932 0.055836
vt 0.608364 0.296020
vt 0.521746 0.324164
vt 0.826009 0.274697
vt 0.750000 0.329921
vt 0.796976 0.185343
vt 0.703024 0.185343
vt 0.673991 0.274697
vt 0.703024 0.185343
vt 0.750000 0.329921
vt 0.796976 0.185343
s 1
usemtl stem
f 1/1/1 3/4/3 4/3/4 2/2/2
f 3/4/3 5/6/5 6/5/6 4/3/4
f 5/6/5 7/8/7 8/7/8 6/5/6
f 4/9/4 6/13/6 8/12/8 10/11/10 2/10/2
f 7/8/7 9/15/9 10/14/10 8/7/8
f 9/15/9 1/17/1 2/16/2 10/14/10
f 22/18/22 17/21/17 16/20/16 21/19/21
f 23/22/23 18/23/18 17/21/17 22/18/22
f 24/24/24 19/25/19 18/23/18 23/22/23
f 25/26/25 20/27/20 19/25/19 24/24/24
f 21/19/21 16/20/16 20/27/20 25/26/25
f 12/28/12 22/18/22 21/19/21 11/29/11
f 13/30/13 23/22/23 22/18/22 12/28/12
f 14/31/14 24/24/24 23/22/23 13/30/13
f 15/32/15 25/26/25 24/24/24 14/31/14
f 11/29/11 21/19/21 25/26/25 15/32/15
f 5/6/5 3/4/3 26/4/26 27/6/27
f 18/6/18 5/6/5 27/6/27 28/6/28
f 17/4/17 18/6/18 28/6/28 29/4/29
f 3/4/3 17/4/17 29/4/29 26/4/26
f 1/17/1 9/15/9 30/15/30 31/17/31
f 16/17/16 1/17/1 31/17/31 32/17/32
f 20/15/20 16/17/16 32/17/32 33/15/33
f 9/15/9 20/15/20 33/15/33 30/15/30
f 3/4/3 1/1/1 34/1/34 35/4/35
f 17/4/17 3/4/3 35/4/35 36/4/36
f 16/1/16 17/4/17 36/4/36 37/1/37
f 1/1/1 16/1/16 37/1/37 34/1/34
f 7/8/7 5/6/5 38/6/38 39/8/39
f 19/8/19 7/8/7 39/8/39 40/8/40
f 18/6/18 19/8/19 40/8/40 41/6/41
f 5/6/5 18/6/18 41/6/41 38/6/38
f 9/15/9 7/8/7 42/8/42 43/15/43
f 20/15/20 9/15/9 43/15/43 44/15/44
f 19/8/19 20/15/20 44/15/44 45/8/45
f 7/8/7 19/8/19 45/8/45 42/8/42
f 62/8/62 83/8/83 82/15/82 63/15/63
f 27/6/27 26/4/26 46/4/46 47/6/47
f 28/6/28 27/6/27 47/6/47 48/6/48
f 29/4/29 28/6/28 48/6/48 49/4/49
f 26/4/26 29/4/29 49/4/49 46/4/46
f 55/4/55 74/4/74 76/4/76 56/4/56
f 31/17/31 30/15/30 50/15/50 51/17/51
f 32/17/32 31/17/31 51/17/51 52/17/52
f 33/15/33 32/17/32 52/17/52 53/15/53
f 30/15/30 33/15/33 53/15/53 50/15/50
f 48/6/48 68/6/68 69/4/69 49/4/49
f 35/4/35 34/1/34 54/1/54 55/4/55
f 36/4/36 35/4/35 55/4/55 56/4/56
f 37/1/37 36/4/36 56/4/56 57/1/57
f 34/1/34 37/1/37 57/1/57 54/1/54
f 58/6/58 79/6/79 78/8/78 59/8/59
f 39/8/39 38/6/38 58/6/58 59/8/59
f 40/8/40 39/8/39 59/8/59 60/8/60
f 41/6/41 40/8/40 60/8/60 61/6/61
f 38/6/38 41/6/41 61/6/61 58/6/58
f 51/17/51 70/17/70 72/17/72 52/17/52
f 43/15/43 42/8/42 62/8/62 63/15/63
f 44/15/44 43/15/43 63/15/63 64/15/64
f 45/8/45 44/15/44 64/15/64 65/8/65
f 42/8/42 45/8/45 65/8/65 62/8/62
f 67/4/67 69/4/69 68/6/68 66/6/66
f 71/15/71 73/15/73 72/17/72 70/17/70
f 75/1/75 77/1/77 76/4/76 74/4/74
f 79/6/79 81/6/81 80/8/80 78/8/78
f 83/8/83 85/8/85 84/15/84 82/15/82
f 52/17/52 72/17/72 73/15/73 53/15/53
f 59/8/59 78/8/78 80/8/80 60/8/60
f 49/4/49 69/4/69 67/4/67 46/4/46
f 56/4/56 76/4/76 77/1/77 57/1/57
f 63/15/63 82/15/82 84/15/84 64/15/64
f 53/15/53 73/15/73 71/15/71 50/15/50
f 60/8/60 80/8/80 81/6/81 61/6/61
f 57/1/57 77/1/77 75/1/75 54/1/54
f 64/15/64 84/15/84 85/8/85 65/8/65
f 61/6/61 81/6/81 79/6/79 58/6/58
f 65/8/65 85/8/85 83/8/83 62/8/62
f 46/4/46 67/4/67 66/6/66 47/6/47
f 50/15/50 71/15/71 70/17/70 51/17/51
f 47/6/47 66/6/66 68/6/68 48/6/48
f 54/1/54 75/1/75 74/4/74 55/4/55
f 14/31/14 97/33/97 99/32/99 15/32/15
f 96/30/96 88/30/88 89/31/89 98/31/98
f 11/29/11 92/29/92 93/28/93 12/28/12
f 98/31/98 89/31/89 90/32/90 100/32/100
f 100/32/100 90/32/90 86/29/86 91/34/91
f 86/29/86 90/32/90 89/31/89 88/30/88 87/28/87
f 12/28/12 93/28/93 95/30/95 13/30/13
f 94/28/94 87/28/87 88/30/88 96/30/96
f 13/30/13 95/35/95 97/31/97 14/31/14
f 15/32/15 99/32/99 92/29/92 11/29/11
f 92/29/92 91/29/91 94/28/94 93/28/93
f 93/28/93 94/28/94 96/30/96 95/30/95
f 95/35/95 96/30/96 98/31/98 97/31/97
f 97/33/97 98/31/98 100/32/100 99/32/99
f 99/32/99 100/32/100 91/34/91 92/29/92
f 91/29/91 86/29/86 87/28/87 94/28/94
